<?xml version="1.0" encoding="utf-8"?>
<!-- Generator: Adobe Illustrator 18.0.0, SVG Export Plug-In . SVG Version: 6.00 Build 0)  -->
<!DOCTYPE svg PUBLIC "-//W3C//DTD SVG 1.1//EN" "http://www.w3.org/Graphics/SVG/1.1/DTD/svg11.dtd">
<svg version="1.1" id="Layer_1" xmlns="http://www.w3.org/2000/svg" xmlns:xlink="http://www.w3.org/1999/xlink" x="0px" y="0px"
	 viewBox="0 0 222 219" enable-background="new 0 0 222 219" xml:space="preserve">
<g>
	<path d="M127.7,2.7l0.1-0.9l4,0.3l-2,24.5l-4-0.3l1.4-17.3l-6.5,17.2l-2.4-1.1l-2.5,0.8l-3.7-18.1l-1.4,17.3l-4-0.3l2-24.5l4,0.3
		l-0.1,1.6l1.6-1l4.5,20l7.6-19.1L127.7,2.7z"/>
	<path d="M145.6,32.6l-3.7-1.5l9.5-22.7l3.7,1.5L145.6,32.6z"/>
	<path d="M176.1,22.1l-13.2,16.7l1.6-0.3l7.9,6.2l-2.8,3.6l-10.7-8.4l1.1-1.4l-1.3-1l14.1-17.8L176.1,22.1z"/>
	<path d="M189.3,73l-3.3-2.3l5.1-6.4l-4-6.3l-7.9,1.9l-0.7-4l24.2-5.8l0.4,2.3l1.9,1.4L189.3,73z M199.5,54.6l-9.6,2.3l1.7,0.7
		l2.3,3.6L199.5,54.6z"/>
	<path d="M218.6,91.7l0.8,3.9l-24,5l-0.8-3.9l2.6-0.6l-1.1-1.1l12.7-10.7l-16.1,3.4l-0.8-3.9l24-5l0.8,3.9l-2.7,0.6l1.2,1.1
		l-13,10.7L218.6,91.7z"/>
	<path d="M197.2,142.6c1.9,0.9,3.2,2.4,3.9,4.3c0.7,2,0.6,3.9-0.4,5.8c-0.9,1.9-2.4,3.2-4.3,3.9c-2,0.7-3.9,0.6-5.8-0.4
		c-1.9-0.9-3.2-2.4-3.9-4.3c-0.7-2-0.6-3.9,0.4-5.8c0.9-1.9,2.4-3.2,4.3-3.9C193.4,141.5,195.4,141.6,197.2,142.6z M196.6,143.9
		c-1.5-0.7-3.1-0.8-4.6-0.3c-1.6,0.5-2.7,1.6-3.5,3.1s-0.8,3.1-0.3,4.6c0.5,1.6,1.6,2.7,3.1,3.5c1.5,0.7,3.1,0.8,4.6,0.3
		c1.6-0.5,2.7-1.6,3.5-3.1s0.8-3.1,0.3-4.6C199.1,145.8,198.1,144.7,196.6,143.9z M195.5,146.2c0.9,0.4,1.5,1.1,1.8,2
		s0.3,1.8-0.2,2.7c-0.4,0.9-1.1,1.5-2,1.8s-1.8,0.3-2.7-0.2c-0.9-0.4-1.5-1.1-1.8-2c-0.3-0.9-0.3-1.8,0.2-2.7c0.4-0.9,1.1-1.5,2-1.8
		C193.7,145.7,194.6,145.8,195.5,146.2z"/>
	<path d="M186.8,162.1c1.6,1.3,2.5,3.1,2.7,5.1c0.2,2.1-0.4,3.9-1.7,5.6s-3.1,2.5-5.1,2.7c-2.1,0.2-3.9-0.4-5.5-1.7
		c-1.6-1.3-2.5-3.1-2.7-5.1c-0.2-2.1,0.4-3.9,1.7-5.5s3.1-2.5,5.1-2.7C183.3,160.2,185.2,160.7,186.8,162.1z M185.8,163.2
		c-1.3-1.1-2.8-1.5-4.4-1.4c-1.7,0.2-3,0.9-4.1,2.2c-1.1,1.3-1.5,2.8-1.4,4.4c0.2,1.7,0.9,3,2.2,4.1c1.3,1.1,2.8,1.5,4.4,1.4
		c1.7-0.2,3-0.9,4.1-2.2c1.1-1.3,1.5-2.8,1.4-4.4C187.8,165.7,187.1,164.3,185.8,163.2z M184.2,165.2c0.8,0.6,1.2,1.4,1.3,2.4
		c0.1,1-0.2,1.8-0.8,2.6c-0.6,0.8-1.4,1.2-2.4,1.3c-1,0.1-1.8-0.2-2.6-0.8c-0.8-0.6-1.2-1.4-1.3-2.4c-0.1-1,0.2-1.8,0.8-2.6
		c0.6-0.8,1.4-1.2,2.4-1.3C182.6,164.3,183.5,164.6,184.2,165.2z"/>
	<path d="M129.3,215.7l0.2,0.9l-3.9,0.9l-5.7-23.9l3.9-0.9l4,16.8l0.8-18.4l2.6,0.4l2.2-1.5l9.1,16.1l-4.1-16.9l3.9-0.9l5.7,23.9
		l-3.9,0.9l-0.4-1.6l-1.2,1.5l-10.5-17.6l-1.4,20.5L129.3,215.7z"/>
	<path d="M86.3,208.9l-0.2-2.3l0.1-2.5l0.5-3.5l0.1,0l0.1-0.3l0.8-2.3l0.4-0.7l-0.1-0.1l1.1-1.6l0,0l0.8-1.2l2.4-1.7L95,192l2.7,0.1
		l2.5,0.6l2.2,1.2l1.4,1.3l1.2,1.7l0.8,1.9l0.5,2.2l0.1,2.4l-0.2,2.5l0.4,0.1l-1.4,3.6l-0.9,2.1l-1.4,1.8l-1.6,1.4l-1.9,1.2
		l-2.8,0.6l-2.2-0.2l-2-0.7l-1.8-0.7l-1.6-1.5l-1.4-2.1l0,0c0,0,0-0.1-0.1-0.2c0-0.1,0-0.1-0.1-0.2c0-0.1,0-0.1-0.1-0.2
		c0,0,0-0.1,0-0.1s0-0.1,0-0.1L86.3,208.9z M90.7,201.2l-0.6,2.8l-0.1,0.8l0.1,1.2l0.1,1.3l0.2,0.4l0.5,1.3l0.9,1.3l0.8,0.7l1.1,0.4
		l1.4,0.4l1.2,0.1l1.6-0.4l1.1-0.7l1.1-0.9l0.8-1l0.5-0.8l0.5-1.4l0.2-1l0.3-2.8l-0.1-1.7l-0.4-1.1l-0.5-0.8l-0.7-1l-0.8-0.8
		l-1.2-0.7l-1.6-0.4l-1.6,0l-1.4,0.5l-1.4,1l-0.7,0.7l-0.1,0.2l-0.5,0.7L90.7,201.2z"/>
	<path d="M52.7,200.8l2.1-3.9l9.2,5.1l3.3-5.9l-1.6,0.6l-7-3.9l2.1-3.8l7.9,4.4l5-9l3.5,1.9l-11,19.9l-1.4-0.8l-0.9,1.6L52.7,200.8z
		"/>
	<path d="M26.2,176.7l3.3-2.9l7,7.8l5-4.5l-1.7,0.1l-5.3-5.9l3.3-2.9l6.1,6.7l7.7-6.9l2.7,3l-16.9,15.2l-1.1-1.2l-1.4,1.2
		L26.2,176.7z"/>
	<path d="M28.7,132.1l2.9,2.9l-6.1,5.4l2.8,6.9l8.1-0.5l0,4l-24.8,1.6l0-2.4l-1.7-1.7L28.7,132.1z M15.6,148.5l9.9-0.6l-1.5-0.9
		l-1.6-3.9L15.6,148.5z"/>
	<path d="M3.5,122l-0.7-16.2l4.4-0.2l0.3,5.9l20.1-0.9l0.2,4.4l-20.1,0.9l0.3,5.9L3.5,122z"/>
	<path d="M5.5,85.1l4.8-15.5l4.2,1.3l-1.7,5.7L32,82.5l-1.3,4.2l-19.3-5.9l-1.7,5.7L5.5,85.1z"/>
	<path d="M50.8,37.4l6,8l-1.3,1l-6.9-9.2c-1-1.3-2.2-2.2-3.7-2.7l1.3-1c1,0.3,1.9,0.9,2.9,1.8c-0.4-1.4-0.5-2.6-0.4-3.6l1.1-1.2
		c1.1,0.3,2.2,1,3.3,2.1c-0.4-1.1-0.5-2.4-0.5-3.9l1.1-1.2c1.4,0.4,2.5,1.2,3.4,2.4l1.8,2.4c-0.4-1.2-0.6-2.3-0.6-3.1l0.8-1.2
		c2,0.7,3.5,1.9,4.7,3.4c0.9,1.2,1.5,2.6,1.8,4.1c0.3,1.5,0.2,3.1-0.2,4.8c0.7,0.7,1.7,1.2,3.2,1.6L67.1,43
		c-0.7-0.2-1.5-0.6-2.3-1.1c-0.5,1-1.2,2.1-2.2,3.1L61.7,44c0.9-1,1.6-2,2-3c-0.5-0.5-1-1-1.4-1.6l-5.8-7.7
		c-0.9-1.3-1.8-2.1-2.7-2.4c-0.2,1.6,0.2,3.5,1.1,5.6l5.8,7.7l-1.3,1L53,35c-1.2-1.6-2.2-2.5-3-2.9C49.9,33.8,50.1,35.6,50.8,37.4z
		 M64.2,39.3c0.2-1.3,0.1-2.5-0.2-3.7c-0.3-1.1-0.8-2.2-1.5-3.2c-0.8-1-1.7-1.8-2.9-2.5c0,1.3,0.2,2.7,0.8,4.3L64.2,39.3z"/>
</g>
</svg>
