<?xml version="1.0" encoding="UTF-8" standalone="no"?>
<svg width="65px" height="68px" viewBox="0 0 65 68" version="1.1" xmlns="http://www.w3.org/2000/svg" xmlns:xlink="http://www.w3.org/1999/xlink">
    <!-- Generator: Sketch 41.2 (35397) - http://www.bohemiancoding.com/sketch -->
    <title>Page 1</title>
    <desc>Created with Sketch.</desc>
    <defs></defs>
    <g id="Page-1" stroke="none" stroke-width="1" fill="none" fill-rule="evenodd">
        <path d="M30.8910349,0.945 L0.891034909,23.445 C0.336034909,23.867 -0.00396509089,24.555 3.4909114e-05,25.25 L3.4909114e-05,65.75 C3.4909114e-05,66.93 1.07003491,68 2.25003491,68 L22.5000349,68 C23.6800349,68 24.7500349,66.93 24.7500349,65.75 L24.7500349,54.5 C24.7500349,50.305 28.0550349,47 32.2500349,47 C36.4450349,47 39.7500349,50.305 39.7500349,54.5 L39.7500349,65.75 C39.7500349,66.93 40.8200349,68 42.0000349,68 L62.2500349,68 C63.4300349,68 64.5000349,66.93 64.5000349,65.75 L64.5000349,25.25 C64.5000349,24.555 64.1640349,23.867 63.6090349,23.445 L33.6090349,0.945 C32.6250349,0.32 31.8090349,0.387 30.8910349,0.945 Z M32.2500349,5.562 L60.0000349,26.375 L60.0000349,63.5 L44.2500349,63.5 L44.2500349,54.5 C44.2500349,47.891 38.8590349,42.5 32.2500349,42.5 C25.6410349,42.5 20.2500349,47.891 20.2500349,54.5 L20.2500349,63.5 L4.50003491,63.5 L4.50003491,26.375 L32.2500349,5.562 Z" fill="#000000"></path>
    </g>
</svg>