<?xml version="1.0" encoding="UTF-8" standalone="no"?>
<svg width="73px" height="73px" viewBox="0 0 73 73" version="1.1" xmlns="http://www.w3.org/2000/svg" xmlns:xlink="http://www.w3.org/1999/xlink">
    <!-- Generator: Sketch 41.2 (35397) - http://www.bohemiancoding.com/sketch -->
    <title>Group</title>
    <desc>Created with Sketch.</desc>
    <defs></defs>
    <g id="Page-1" stroke="none" stroke-width="1" fill="none" fill-rule="evenodd">
        <g id="Group" fill="#000000">
            <path d="M36.5,72.25 C56.2441798,72.25 72.25,56.2441798 72.25,36.5 C72.25,16.7558202 56.2441798,0.75 36.5,0.75 C16.7558202,0.75 0.75,16.7558202 0.75,36.5 C0.75,56.2441798 16.7558202,72.25 36.5,72.25 Z M36.5,67.75 C19.2411016,67.75 5.25,53.7588984 5.25,36.5 C5.25,19.2411016 19.2411016,5.25 36.5,5.25 C53.7588984,5.25 67.75,19.2411016 67.75,36.5 C67.75,53.7588984 53.7588984,67.75 36.5,67.75 Z" id="Oval"></path>
            <path d="M38.8375001,28.5249997 L34.1074999,28.5249997 L34.1074999,56.2450008 L38.8375001,56.2450008 L38.8375001,28.5249997 Z M36.4725,16.7549992 C34.6574999,16.7549992 33.2274999,18.1849992 33.2274999,19.9999993 C33.2274999,21.7599994 34.6574999,23.1899994 36.4725,23.1899994 C38.2875001,23.1899994 39.7725001,21.7599994 39.7725001,19.9999993 C39.7725001,18.1849992 38.2875001,16.7549992 36.4725,16.7549992 Z" id="i"></path>
        </g>
    </g>
</svg>